# xmcd
#
# Track frame offsets: 
#        150
#        11675
#        23237
#        40767
#        52450
#        66252
#        76392
#        87147
#        105715
#        121725
#        140825
#
# Disc length: 2043 seconds
#
# Revision: 1
# Processed by: cddbd v1.5.2PL0 Copyright (c) Steve Scherf et al.
# Submitted via: ExactAudioCopy v0.95b4
#
DISCID=9407f90b
DTITLE=Chris LeDoux - Songbook Of The American West
DYEAR=1975
DGENRE=Country
TTITLE0=I've Got To Be A Rodeo Man
TTITLE1=Littlest Cowboy Rides Again
TTITLE2=The Double Diamond
TTITLE3=Not For Heroes
TTITLE4=Let's All Help The Cowboys (Sing The Blues)
TTITLE5=A Cowboy Is A Hell Of A Man
TTITLE6=Goin' And A Blowin'
TTITLE7=Mamas Don't Let Your Babies Grow Up To Be Cowboys
TTITLE8=The Goodnight Loving Trail
TTITLE9=Go Riding, Young Cowboy
TTITLE10=There's Nobody Home On The Range Anymore
EXTD=
EXTT0=
EXTT1=
EXTT2=
EXTT3=
EXTT4=
EXTT5=
EXTT6=
EXTT7=
EXTT8=
EXTT9=
EXTT10=
PLAYORDER=
